<svg xmlns="http://www.w3.org/2000/svg" viewBox="0 0 100 100"><rect x="2" y="2" width="96" height="96" rx="23" fill="#4f46e5"/><rect x="18" y="26" width="64" height="38" rx="15" fill="#ffffff"/><polygon points="44,63 50,74 56,63" fill="#ffffff"/><g transform="translate(20.191,55.000) scale(0.02941,-0.02941)" fill="#4f46e5"><path d="M834 586C886 586 920 584 956 580V693C919 688 884 686 830 686H579C563 735 538 793 512 841L394 806C417 764 434 728 450 686H172C120 686 85 688 47 693V580C83 584 122 586 169 586H216C246 494 268 442 306 376C342 314 356 295 425 216C325 133 210 79 31 30C60 -6 77 -34 95 -77C190 -45 248 -22 308 9C381 47 451 93 505 139C612 46 738 -21 907 -77C929 -23 943 1 976 40C815 76 696 130 585 216C633 271 668 321 703 385C741 455 748 471 781 586ZM663 586C640 508 625 470 594 416C568 369 538 328 503 290C465 330 438 366 408 415C372 474 355 512 332 586Z"/></g><path d="M47.5 58 L53.5 31" stroke="#06b6d4" stroke-width="4" stroke-linecap="round"/><g transform="translate(53.990,55.000) scale(0.03501,-0.03501)" fill="#4f46e5"><path d="M249 276 342 538H344L434 276ZM264 714 -6 0H152L208 159H475L529 0H692L425 714Z"/></g><path d="M83 7.5 Q84.2 13.8 90.5 15 Q84.2 16.2 83 22.5 Q81.8 16.2 75.5 15 Q81.8 13.8 83 7.5 Z" fill="#06b6d4"/></svg>